<mxfile host="app.diagrams.net" modified="2024-01-24T13:23:17.055Z" agent="Mozilla/5.0 (Windows NT 10.0; Win64; x64) AppleWebKit/537.36 (KHTML, like Gecko) Chrome/120.0.0.0 Safari/537.36" etag="y09ml7jScWD3ccBTW32j" version="22.1.21" type="github">
  <diagram name="第 1 页" id="TGovTwwL7But7a9X8bMC">
    <mxGraphModel dx="1046" dy="412" grid="1" gridSize="10" guides="1" tooltips="1" connect="1" arrows="1" fold="1" page="1" pageScale="1" pageWidth="827" pageHeight="1169" math="0" shadow="0">
      <root>
        <mxCell id="0" />
        <mxCell id="1" parent="0" />
        <mxCell id="uLltdjqib2W7RQXsCc4c-1" value="12个单元音字母发音：&lt;br&gt;&lt;br&gt;1./i:/&amp;nbsp; &amp;nbsp;长元音/紧元音/前（舌头前部发音）元音 ，&amp;nbsp; 读作：衣（四声，拉长），上下唇微微张开，嘴唇向2边移动，舌尖抵下齿，舌部及下颚部紧绷。See、She。&lt;br&gt;&lt;br&gt;2./I/：短元音/松元音/前元音，读作：A，口型扁平，嘴唇稍微松开，放松，舌尖抵下齿。it（a特）、big（贝个）、hit&amp;nbsp; ，读音标的时候一声的感觉，读单词是4声。&lt;br&gt;&lt;br&gt;3./ae/ 长元音/紧元音/前（舌头前部发音）元音&amp;nbsp;，读作：安（一声，拉长），张大嘴，舌尖抵下齿。At、Cat。读音标的时候一声的感觉，读单词是4声。&lt;br&gt;&lt;br&gt;4." style="rounded=0;whiteSpace=wrap;html=1;fontSize=18;verticalAlign=top;align=left;" vertex="1" parent="1">
          <mxGeometry x="20" y="40" width="720" height="310" as="geometry" />
        </mxCell>
      </root>
    </mxGraphModel>
  </diagram>
</mxfile>
